<svg width="94" height="97" viewBox="0 0 94 97" xmlns="http://www.w3.org/2000/svg"><title>ico02</title><g fill="none" class="nc-icon-wrapper"><path d="M21.752 35.193a4.178 4.178 0 0 0-5.843.714 1.419 1.419 0 0 0 1.121 2.296c.424 0 .844-.187 1.126-.545a1.315 1.315 0 0 1 1.84-.226 1.43 1.43 0 0 0 2.001-.244 1.415 1.415 0 0 0-.245-1.995z" fill="#ff699f"/><path d="M36.633 35.395a1.419 1.419 0 0 0-.246-1.994 4.178 4.178 0 0 0-5.843.714 1.42 1.42 0 0 0 1.122 2.296c.424 0 .844-.188 1.123-.546a1.315 1.315 0 0 1 1.84-.225 1.432 1.432 0 0 0 2.004-.245z" fill="#ff699f"/><path d="M22.263 45.85c.422 3.429 3.564 5.874 7.004 5.454 3.44-.42 5.894-3.552 5.472-6.981l-.161-1.32a2.16 2.16 0 0 0-2.41-1.877l-8.187 1a2.141 2.141 0 0 0-1.439.814 2.135 2.135 0 0 0-.442 1.59l.163 1.32zm9.568-1.82l.078.64a3.428 3.428 0 0 1-2.99 3.813 3.434 3.434 0 0 1-3.826-2.98l-.078-.639 6.816-.833z" fill="#ff699f"/><path d="M46.286 15.158c.388-3.006-.053-6.064-1.245-8.609-1.399-2.987-3.78-5.217-6.884-6.449-.682-.27-1.46.021-1.794.671-1.534 2.974-5.239 5.093-9.91 5.665l-8.246 1.01a1.421 1.421 0 1 0 .348 2.82l8.243-1.01c5.016-.613 9.164-2.826 11.391-6.013 4.648 2.473 5.775 7.656 5.27 11.553-.524 4.05-2.66 7.097-5.196 7.408l-27.737 3.393c-2.302.282-3.946 2.378-3.662 4.672l.34 2.766-2.161.265-2.165-17.577c-.114-.93.14-1.851.72-2.59a3.51 3.51 0 0 1 2.347-1.324l6.92-.847a1.422 1.422 0 0 0 1.24-1.584 1.425 1.425 0 0 0-1.589-1.237l-6.918.847C2.11 9.416-.38 12.59.048 16.068l2.239 18.17a4.909 4.909 0 0 0-2.032 4.598 4.925 4.925 0 0 0 5.49 4.274l2.66-.326.26 2.116a16.614 16.614 0 0 0 6.328 11.148 16.694 16.694 0 0 0 10.302 3.55c.69 0 1.383-.041 2.08-.127a16.739 16.739 0 0 0 10.81-5.85c.506-.6.428-1.497-.176-2.003a1.43 1.43 0 0 0-2.01.177 13.85 13.85 0 0 1-3.942 3.233 13.866 13.866 0 0 1-5.033 1.62 13.87 13.87 0 0 1-10.277-2.841 13.8 13.8 0 0 1-5.253-9.255l-.436-3.528a1.423 1.423 0 0 0-1.589-1.237l-4.067.5a2.077 2.077 0 0 1-2.32-1.802 2.069 2.069 0 0 1 1.273-2.167c.001 0 .001-.002.003-.002a2.08 2.08 0 0 1 .53-.138l4.076-.498a1.423 1.423 0 0 0 1.241-1.584l-.515-4.178a1.355 1.355 0 0 1 1.18-1.506l26.321-3.22 1.97 15.974c.258 2.086.049 4.146-.62 6.125a1.42 1.42 0 0 0 1.351 1.874 1.43 1.43 0 0 0 1.352-.966 16.518 16.518 0 0 0 .749-7.38l-1.989-16.131c3.218-1.137 5.666-4.77 6.282-9.53z" fill="#ff699f"/><path d="M74.002 74.83a1.315 1.315 0 0 1 1.84.226 1.428 1.428 0 0 0 2.002.244c.62-.483.73-1.375.245-1.995a4.174 4.174 0 0 0-5.843-.714 1.419 1.419 0 0 0-.245 1.995c.485.62 1.38.727 2.001.244z" fill="#ff699f"/><path d="M57.613 70.8a1.419 1.419 0 0 0-.245 1.996 1.43 1.43 0 0 0 2 .244 1.315 1.315 0 0 1 1.84.225 1.425 1.425 0 0 0 2.002.245c.62-.483.73-1.376.245-1.995a4.178 4.178 0 0 0-5.842-.714z" fill="#ff699f"/><path d="M70.019 79.529l-8.187-1.002a2.157 2.157 0 0 0-1.594.44c-1.025.799-.785 1.87-.977 2.757-.687 5.565 5.742 9.1 10.108 5.701 2.623-2.042 2.36-4.86 2.531-5.494a2.16 2.16 0 0 0-1.881-2.402zm-2.407 5.655a3.43 3.43 0 0 1-2.533.7 3.423 3.423 0 0 1-2.99-3.815l.078-.638 6.818.833c-.082.303.043 1.817-1.373 2.92z" fill="#ff699f"/><path d="M92.649 48.782a6.338 6.338 0 0 0-4.247-2.394L68.814 43.99a2.668 2.668 0 0 1-1.835-1.087 12.4 12.4 0 0 0-5.335-4.208c-.728-.3-1.56.045-1.86.77-.301.727.045 1.556.773 1.856a9.533 9.533 0 0 1 4.107 3.243 5.528 5.528 0 0 0 3.8 2.245l19.589 2.397a3.52 3.52 0 0 1 3.067 3.912l-2.165 17.58-2.16-.266.34-2.768c.283-2.294-1.361-4.391-3.663-4.672l-27.735-3.391a9.498 9.498 0 0 1-6.488-3.742 9.453 9.453 0 0 1-1.79-7.261c.679-4.165 4.096-7.427 8.314-7.933a1.42 1.42 0 1 0-.34-2.82c-5.47.655-9.907 4.889-10.789 10.298a12.248 12.248 0 0 0 2.325 9.423 12.31 12.31 0 0 0 7.015 4.602l-1.978 16.056a16.56 16.56 0 0 0 .435 6.34 1.424 1.424 0 0 0 1.743 1.007 1.42 1.42 0 0 0 1.011-1.739 13.746 13.746 0 0 1-.36-5.263l1.97-15.973 26.321 3.22c.741.092 1.272.768 1.18 1.507l-.515 4.177a1.424 1.424 0 0 0 1.241 1.584l4.076.499c.172.02.34.066.5.126a2.055 2.055 0 0 1 1.307 2.18 2.074 2.074 0 0 1-2.313 1.803l-4.075-.5a1.422 1.422 0 0 0-1.589 1.237l-.435 3.527a13.792 13.792 0 0 1-5.254 9.255 13.872 13.872 0 0 1-10.28 2.842 13.835 13.835 0 0 1-5.431-1.85 13.88 13.88 0 0 1-4.106-3.718 1.428 1.428 0 0 0-1.992-.305 1.417 1.417 0 0 0-.306 1.985 16.69 16.69 0 0 0 4.944 4.477 16.677 16.677 0 0 0 6.546 2.228c.696.085 1.39.127 2.08.127 3.723 0 7.319-1.228 10.301-3.55A16.618 16.618 0 0 0 85.333 82.3l.26-2.116c2.545.301 2.743.364 3.266.364a4.925 4.925 0 0 0 4.884-4.314 4.879 4.879 0 0 0-2.031-4.602l2.237-18.166a6.28 6.28 0 0 0-1.3-4.684z" fill="#ff699f"/><path d="M72.467 18.239c.787 0 1.425-.637 1.425-1.421v-3.479c0-.784-.638-1.42-1.425-1.42s-1.426.636-1.426 1.42v3.479c0 .784.637 1.42 1.426 1.42z" fill="#ff699f"/><path d="M72.467 28.931c.787 0 1.425-.636 1.425-1.42v-3.479c0-.784-.638-1.42-1.425-1.42s-1.426.636-1.426 1.42v3.479c0 .784.637 1.42 1.426 1.42z" fill="#ff699f"/><path d="M76.086 21.846h3.49c.786 0 1.425-.637 1.425-1.421 0-.785-.639-1.421-1.426-1.421h-3.49c-.786 0-1.425.636-1.425 1.42 0 .785.637 1.422 1.426 1.422z" fill="#ff699f"/><path d="M65.358 21.846h3.49c.787 0 1.425-.637 1.425-1.421 0-.785-.638-1.421-1.425-1.421h-3.49c-.787 0-1.425.636-1.425 1.42 0 .785.638 1.422 1.425 1.422z" fill="#ff699f"/><path d="M21.533 68.069c-.787 0-1.425.636-1.425 1.42v3.479c0 .784.638 1.42 1.425 1.42s1.426-.636 1.426-1.42V69.49c0-.787-.639-1.421-1.426-1.421z" fill="#ff699f"/><path d="M21.533 78.76c-.787 0-1.425.636-1.425 1.42v3.479c0 .784.638 1.42 1.425 1.42s1.426-.636 1.426-1.42V80.18c0-.784-.639-1.42-1.426-1.42z" fill="#ff699f"/><path d="M28.642 75.152h-3.49c-.787 0-1.425.637-1.425 1.421 0 .785.638 1.421 1.425 1.421h3.49c.787 0 1.425-.636 1.425-1.42 0-.785-.638-1.422-1.425-1.422z" fill="#ff699f"/><path d="M17.914 75.152h-3.49c-.786 0-1.425.637-1.425 1.421 0 .785.639 1.421 1.426 1.421h3.49c.786 0 1.425-.636 1.425-1.42 0-.785-.639-1.422-1.426-1.422z" fill="#ff699f"/></g></svg>