<svg width="73" height="77" viewBox="0 0 73 77" xmlns="http://www.w3.org/2000/svg"><title>ico08</title><g fill="none" class="nc-icon-wrapper"><path d="M64.49 73.23H50.61v-2.8h11.07V3.73c0-.51-.42-.93-.93-.93H11.49c-.5 0-.93.43-.93.93v66.69h11.19v2.8H7.76V3.73C7.76 1.68 9.43 0 11.49 0h49.27c2.06 0 3.73 1.68 3.73 3.73v69.5z" fill="#ff699f"/><path d="M57.21 73.23h-6.56v-2.8h3.76V10.17c0-.07-.06-.13-.13-.13H17.96c-.07 0-.13.06-.13.13v60.26h3.79v2.8h-6.59V10.17c0-1.62 1.31-2.93 2.93-2.93h36.32a2.94 2.94 0 0 1 2.93 2.93v63.06z" fill="#ff699f"/><path d="M49.59 76.24H22.66a2.39 2.39 0 0 1-2.39-2.39V69.8a2.39 2.39 0 0 1 2.39-2.39h26.93a2.39 2.39 0 0 1 2.39 2.39v4.05a2.403 2.403 0 0 1-2.39 2.39zm-26.52-2.8h26.11v-3.23H23.07v3.23z" fill="#ff699f"/><path d="M40.57 25.03h-8.89c-1.18 0-2.15-.96-2.15-2.15v-4.53c0-1.19.96-2.15 2.15-2.15h8.89c1.18 0 2.15.96 2.15 2.15v4.53c0 1.19-.97 2.15-2.15 2.15zm-8.24-2.8h7.58V19h-7.58v3.23z" fill="#ff699f"/><path d="M51.79 52.48h-3.95c-1.15 0-2.08-.93-2.08-2.08V37.92c0-1.15.93-2.08 2.08-2.08h3.95c1.15 0 2.08.93 2.08 2.08V50.4c0 1.14-.93 2.08-2.08 2.08zm-3.23-2.8h2.51V38.64h-2.51v11.04z" fill="#ff699f"/><path d="M10.56 73.23H2c-1.1 0-2-.9-2-2v-6.59c0-1.1.9-2 2-2h6.57c1.1 0 2 .9 2 2v8.59h-.01zm-7.76-2.8h4.96v-4.98H2.8v4.98z" fill="#ff699f"/><path d="M70.08 73.23h-8.39v-8.41c0-1.2.97-2.17 2.17-2.17h6.23c1.19 0 2.17.97 2.17 2.17v6.25a2.188 2.188 0 0 1-2.18 2.16zm-5.59-2.8h4.96v-4.98h-4.96v4.98z" fill="#ff699f"/><path d="M36.12 32.76a3.44 3.44 0 1 1 0-6.88 3.44 3.44 0 0 1 0 6.88zm0-4.08c-.35 0-.64.29-.64.64 0 .35.29.64.64.64.35 0 .63-.29.63-.64a.624.624 0 0 0-.63-.64z" fill="#ff699f"/></g></svg>