<svg width="70" height="63" viewBox="0 0 70 63" xmlns="http://www.w3.org/2000/svg"><title>ico05</title><g fill="none" class="nc-icon-wrapper"><path d="M63.926 5.477L17.513.065a6.267 6.267 0 0 0-5.016 1.484 6.674 6.674 0 0 0-2.465 4.54l-.85 7.157H6.548C2.807 13.246 0 16.65 0 20.49v35.7c-.094 3.663 2.72 6.71 6.287 6.807.086.002.173.003.257.002h46.667c3.74 0 7.14-2.968 7.14-6.809v-1.396a8.366 8.366 0 0 0 3.23-1.397 7.304 7.304 0 0 0 2.465-4.713l3.91-35.438c.402-3.85-2.289-7.313-6.031-7.77zm-57.38 11.26h46.668c1.998.086 3.611 1.705 3.74 3.755v14.664L38.424 46.24a4.247 4.247 0 0 1-5.015-.436l-9.35-8.467a7.413 7.413 0 0 0-9.436-.35L3.403 45.37V20.492c-.001-1.922 1.274-3.754 3.144-3.754zm46.67 42.771H6.545c-1.688.05-3.099-1.314-3.148-3.049a2.926 2.926 0 0 1 .004-.267v-6.459l13.176-9.95a3.998 3.998 0 0 1 5.27.261l9.265 8.38a7.864 7.864 0 0 0 5.015 1.92 7.578 7.578 0 0 0 4.08-1.134l16.746-9.95v16.934c0 1.918-1.87 3.314-3.739 3.314zM66.56 12.81l-3.996 35.438a3.003 3.003 0 0 1-1.105 2.357c-.34.35-1.105.523-1.105.699V20.49c-.133-3.976-3.267-7.154-7.14-7.244h-40.63l.764-6.808a4.034 4.034 0 0 1 1.275-2.27 3.835 3.835 0 0 1 2.55-.698L63.5 8.97c1.87.182 3.24 1.886 3.063 3.806a.245.245 0 0 1-.003.035z" fill="#ff699f"/></g></svg>