<svg width="67" height="63" viewBox="0 0 67 63" xmlns="http://www.w3.org/2000/svg"><title>ico06</title><g fill="none" class="nc-icon-wrapper"><path d="M49.35 59.17c-.69 0-1.39-.17-2.03-.5L34.4 51.88a.89.89 0 0 0-.81 0l-12.92 6.79c-1.48.78-3.23.65-4.58-.33a4.33 4.33 0 0 1-1.73-4.26l2.47-14.38a.882.882 0 0 0-.25-.77L6.13 28.75a4.32 4.32 0 0 1-1.1-4.46 4.322 4.322 0 0 1 3.51-2.96l14.44-2.1c.28-.04.53-.22.66-.48L30.1 5.67c.74-1.5 2.23-2.43 3.9-2.43s3.16.93 3.9 2.43l6.46 13.08c.13.26.37.44.65.48l14.44 2.1c1.65.24 3 1.38 3.51 2.96.52 1.59.09 3.3-1.1 4.46L51.42 38.93c-.2.2-.3.49-.25.77l2.47 14.38a4.345 4.345 0 0 1-4.29 5.09zM34 48.3c.7 0 1.39.17 2.03.5l12.92 6.79c.43.23.79.03.92-.07s.43-.37.35-.85l-2.47-14.38A4.37 4.37 0 0 1 49 36.44l10.45-10.18c.35-.34.27-.74.22-.89a.853.853 0 0 0-.7-.59l-14.44-2.1a4.383 4.383 0 0 1-3.28-2.38L34.78 7.21a.856.856 0 0 0-.78-.49c-.16 0-.56.05-.78.48l-6.46 13.08a4.365 4.365 0 0 1-3.28 2.38l-14.44 2.1c-.48.07-.65.44-.7.59-.05.15-.13.55.22.89l10.45 10.18c1.03 1 1.49 2.44 1.25 3.85l-2.47 14.38c-.08.48.22.76.35.85.13.1.48.29.92.07l12.92-6.79c.63-.32 1.32-.48 2.02-.48z" fill="#ff699f"/><path d="M51.47 6.03a1.741 1.741 0 0 1-1.41-2.76L51.91.73a1.741 1.741 0 0 1 2.82 2.04l-1.85 2.54c-.34.48-.88.72-1.41.72z" fill="#ff699f"/><path d="M16.53 6.02c-.54 0-1.07-.25-1.41-.72l-1.85-2.54A1.741 1.741 0 0 1 16.09.72l1.85 2.54a1.741 1.741 0 0 1-1.41 2.76z" fill="#ff699f"/><path d="M2.74 40.22c-.73 0-1.42-.47-1.66-1.2-.3-.91.2-1.9 1.12-2.19l2.99-.97c.91-.3 1.9.2 2.19 1.12.3.91-.2 1.9-1.12 2.19l-2.99.97c-.17.05-.35.08-.53.08z" fill="#ff699f"/><path d="M34 62.92c-.96 0-1.74-.78-1.74-1.74v-3.14c0-.96.78-1.74 1.74-1.74s1.74.78 1.74 1.74v3.14c0 .96-.78 1.74-1.74 1.74z" fill="#ff699f"/><path d="M65.26 40.22c-.18 0-.36-.03-.54-.09l-2.99-.97c-.91-.3-1.42-1.28-1.12-2.19.3-.91 1.28-1.42 2.19-1.12l2.99.97c.91.3 1.42 1.28 1.12 2.19a1.74 1.74 0 0 1-1.65 1.21z" fill="#ff699f"/></g></svg>