<svg width="82" height="74" viewBox="0 0 82 74" xmlns="http://www.w3.org/2000/svg"><title>ico07</title><g fill="none" class="nc-icon-wrapper"><path d="M55.41 11.26c0-.89-.72-1.61-1.6-1.61-.88 0-1.6.72-1.6 1.61 0 .89.72 1.61 1.6 1.61.88 0 1.6-.72 1.6-1.61z" fill="#ff699f"/><path d="M60.66.5c-.3-.32-.72-.5-1.16-.5h-37c-.44 0-.86.18-1.16.5-.3.32-.46.75-.44 1.19.98 17.93-6.92 28.32-8.77 34.84-3.34 11.75 2.11 26.92 9.75 36.84.3.39.77.62 1.27.62h35.7c.5 0 .96-.23 1.27-.62 7.27-9.44 12.97-25.24 9.74-36.83C68.04 30 60.11 19.71 61.1 1.7c.02-.44-.14-.88-.44-1.2zm3.12 29.82c.19.41.39.81.58 1.2.75 1.56 1.42 2.96 1.96 4.46-9.16 3.46-17.78 10.94-25.32 16.7-7.57-5.78-16.17-13.24-25.32-16.7.54-1.5 1.21-2.9 1.96-4.45.19-.39.38-.79.58-1.2 7 3.32 14.84 5.07 22.78 5.07 7.94-.01 15.78-1.76 22.78-5.08zm-48.97 8.77C23.48 42.43 31.7 49.64 39.4 55.5v15.29H23.94c-8.24-11.08-10.71-23.65-9.13-31.7zm43.25 31.69H42.6V55.5c7.75-5.9 15.92-13.06 24.56-16.4 1.91 10.16-3.06 23.47-9.1 31.68zm4.01-44.37c.13.32.26.65.4.98-6.59 3.14-13.98 4.79-21.47 4.79-7.49 0-14.88-1.65-21.47-4.79.14-.33.27-.65.4-.98 3-7.64 4.43-15.43 4.24-23.19h33.66c-.19 7.75 1.24 15.55 4.24 23.19z" fill="#ff699f"/><path d="M55.98 17.33a1.597 1.597 0 0 0-1.9-1.23c-.86.19-1.41 1.04-1.23 1.91.48 2.25 1.1 4.54 1.84 6.79.28.84 1.18 1.3 2.02 1.03.84-.28 1.3-1.19 1.02-2.03-.7-2.15-1.29-4.33-1.75-6.47z" fill="#ff699f"/><path d="M80.4 12.87h-9.91l3.67-3.69c.62-.63.62-1.65 0-2.27-.62-.63-1.64-.63-2.26 0l-6.41 6.43c-.62.63-.62 1.65 0 2.27l6.41 6.43c.62.63 1.64.63 2.26 0 .62-.63.62-1.65 0-2.27l-3.67-3.69h9.91a1.605 1.605 0 1 0 0-3.21z" fill="#ff699f"/><path d="M1.6 16.09h9.91l-3.67 3.69c-.62.63-.62 1.65 0 2.27.62.63 1.64.63 2.26 0l6.41-6.43c.62-.63.62-1.65 0-2.27L10.1 6.91c-.62-.63-1.64-.63-2.26 0-.62.63-.62 1.65 0 2.27l3.67 3.69H1.6c-.88 0-1.6.72-1.6 1.61 0 .89.72 1.61 1.6 1.61z" fill="#ff699f"/></g></svg>