<svg width="92" height="70" viewBox="0 0 92 70" xmlns="http://www.w3.org/2000/svg"><title>ico04</title><g fill="none" class="nc-icon-wrapper"><path d="M88.866 53.72l-5.457-2.712a.093.093 0 0 1-.052-.082v-2.729a9.889 9.889 0 0 0 4.223-6.804 11.28 11.28 0 0 0 1.538-5.676c0-3.71-1.795-7.008-4.568-9.083a5.75 5.75 0 0 0 .246-1.66c0-3.504-3.19-6.354-7.108-6.354-3.92 0-7.109 2.85-7.109 6.354 0 .567.083 1.122.247 1.66a11.44 11.44 0 0 0-3.741 4.848 414.072 414.072 0 0 1-1.016-11.618c-.44-5.93-2.585-10.94-6.203-14.484C56.276 1.86 51.48 0 46 0S35.724 1.86 32.133 5.377c-3.617 3.545-5.762 8.553-6.202 14.483a486.53 486.53 0 0 1-.354 4.489H12.87c-4.715 0-8.55 3.815-8.55 8.501v.08a7.05 7.05 0 0 0 .752 3.162l.69 1.372v2.187c0 3.468 1.717 6.58 4.321 8.452v1.935c0 .248-.167.47-.408.538l-5.563 1.58C1.691 52.846 0 55.076 0 57.579V68.66C0 69.4.604 70 1.348 70c.744 0 1.347-.6 1.347-1.34V57.578c0-1.313.888-2.482 2.157-2.843l5.563-1.581c.2-.057.391-.134.573-.227l3.416 3.397V68.66c0 .74.604 1.34 1.347 1.34.744 0 1.348-.6 1.348-1.34V56.324l3.44-3.42c.46.225.917.354 1.252.45l1.365.388a7.06 7.06 0 0 0-2.991 5.759v9.157c0 .74.603 1.34 1.347 1.34s1.348-.6 1.348-1.34v-9.157a4.392 4.392 0 0 1 2.63-4.015l7.706-3.384a14.304 14.304 0 0 0 12.802 7.87c5.475 0 10.393-3.055 12.806-7.869l7.704 3.383a4.392 4.392 0 0 1 2.63 4.015v9.157c0 .74.604 1.34 1.348 1.34.744 0 1.348-.6 1.348-1.34v-9.157a7.052 7.052 0 0 0-1.702-4.585l2.086-1.037 1.565 1.48a5.669 5.669 0 0 0 3.905 1.553 5.67 5.67 0 0 0 3.904-1.553l1.566-1.48 4.5 2.238a2.94 2.94 0 0 1 1.645 2.644v9.897c0 .74.604 1.34 1.347 1.34.744 0 1.348-.6 1.348-1.34v-9.897a5.597 5.597 0 0 0-3.132-5.04zM73.275 24.974c0-2.026 1.98-3.674 4.413-3.674 2.433 0 4.413 1.648 4.413 3.674 0 .086-.007.17-.014.254a11.412 11.412 0 0 0-4.4-.877 11.41 11.41 0 0 0-4.4.877c-.005-.086-.012-.17-.012-.254zm4.415 2.055c4.815 0 8.734 3.897 8.734 8.686 0 .923-.15 1.838-.444 2.71-3.827-3.865-10.558-5.38-10.883-5.451a1.348 1.348 0 0 0-1.637 1.31c0 .008-.061.938-1.046 1.917a1.335 1.335 0 0 0 0 1.895c.526.524 1.38.524 1.906 0 .759-.753 1.205-1.518 1.465-2.163 2.268.67 6.974 2.362 9.087 5.331-.6 3.454-3.608 6.004-7.182 6.004-3.732 0-6.848-2.778-7.249-6.463a1.316 1.316 0 0 0-.192-.557 8.632 8.632 0 0 1-1.294-4.531c-.002-4.79 3.917-8.688 8.735-8.688zM34.026 7.287C37.102 4.272 41.242 2.68 46 2.68s8.898 1.592 11.974 4.607c3.147 3.082 5.016 7.499 5.407 12.772 1.06 14.292 2.27 22.263 2.739 25.026.007.043-.008.06-.033.077-1.28.825-4.063 2.364-8.402 3.518l-2.223-.976a1.523 1.523 0 0 1-.913-1.394v-4.606c4.331-2.794 7.202-7.644 7.202-13.149v-2.512a5.577 5.577 0 0 0-1.915-4.226c-2.708-2.343-8.837-6.429-19.464-7.485a1.346 1.346 0 0 0-1.475 1.2A1.343 1.343 0 0 0 40.105 17c9.884.982 15.496 4.708 17.963 6.84.629.543.99 1.347.99 2.204v2.513c0 7.16-5.858 12.983-13.056 12.983-7.199 0-13.056-5.825-13.056-12.983v-1.12c0-.515.287-.987.767-1.262 1.685-.965 3.906-2.752 4.925-5.788a1.339 1.339 0 0 0-.852-1.695 1.35 1.35 0 0 0-1.705.847c-.749 2.237-2.433 3.579-3.712 4.311-1.306.749-2.119 2.123-2.119 3.585v1.12c0 5.505 2.872 10.355 7.202 13.15v4.607c0 .604-.36 1.151-.914 1.394l-2.223.976c-4.341-1.155-7.121-2.695-8.402-3.519-.025-.016-.04-.035-.033-.076.471-2.763 1.679-10.734 2.739-25.027.392-5.274 2.26-9.691 5.407-12.773zM8.456 39.653v-2.505c0-.208-.048-.413-.142-.599l-.832-1.654a4.38 4.38 0 0 1-.465-1.964v-.08c0-3.21 2.627-5.822 5.854-5.822h11.617v5.562c0 .9-.214 1.8-.618 2.604l-.681 1.352a1.333 1.333 0 0 0-.142.599v2.864a7.181 7.181 0 0 1-2.216 5.207 7.265 7.265 0 0 1-5.304 2.044c-3.9-.114-7.07-3.529-7.07-7.608zm6.99 10.29a10.062 10.062 0 0 0 3.281-.441v.538c0 .29.03.553.083.795l-3.057 3.04-3.07-3.055c.062-.252.096-.512.096-.78v-.565a9.57 9.57 0 0 0 2.667.468zm5.975.097v-1.846a10.063 10.063 0 0 0 2.05-1.875c.217.436.548.819.977 1.094 1.08.695 3.12 1.851 6.117 2.916l-3.775 1.658-4.257-1.21c-1.113-.316-1.113-.439-1.113-.737zM46 57.292a11.612 11.612 0 0 1-10.336-6.273l1.963-.861a4.204 4.204 0 0 0 2.519-3.848v-3.216A15.74 15.74 0 0 0 46 44.216a15.74 15.74 0 0 0 5.854-1.122v3.216c0 1.664.99 3.174 2.52 3.847l1.962.862C54.357 54.86 50.4 57.292 46 57.292zm15.435-6.963c2.997-1.063 5.035-2.22 6.117-2.916a2.749 2.749 0 0 0 1.225-2.775l-.032-.19a9.933 9.933 0 0 0 3.274 3.75v2.726a.09.09 0 0 1-.052.082l-4.223 2.1c-.05-.023-.099-.05-.15-.072l-6.159-2.705zm14.204 3.088l-1.252-1.183c.212-.393.327-.84.327-1.308V49.5c.942.291 1.939.448 2.974.448 1.033 0 2.032-.157 2.974-.448v1.426c0 .468.116.915.327 1.308l-1.253 1.183a2.986 2.986 0 0 1-4.097 0z" fill="#ff699f"/></g></svg>