<svg width="82" height="69" viewBox="0 0 82 69" xmlns="http://www.w3.org/2000/svg"><title>ico01</title><g fill="none" class="nc-icon-wrapper"><path d="M53.736 27.516a1.6 1.6 0 0 1-1.544-1.175 1.59 1.59 0 0 1 1.128-1.95l.064-.018a1.6 1.6 0 0 1 1.952 1.137 1.59 1.59 0 0 1-1.142 1.94l-.04.01a1.6 1.6 0 0 1-.418.056z" fill="#ff699f"/><path d="M64.514 42.788c-.76 0-1.51-.199-2.188-.587a4.342 4.342 0 0 1-2.046-2.65 1.591 1.591 0 0 1 1.132-1.949 1.6 1.6 0 0 1 1.96 1.126 1.187 1.187 0 0 0 1.458.835 1.17 1.17 0 0 0 .722-.551 1.16 1.16 0 0 0 .118-.899 1.591 1.591 0 0 1 1.132-1.949 1.6 1.6 0 0 1 1.96 1.126 4.308 4.308 0 0 1-.44 3.313 4.356 4.356 0 0 1-2.666 2.034c-.376.101-.76.151-1.142.151z" fill="#ff699f"/><path d="M50.674 46.475c-.76 0-1.512-.2-2.188-.587a4.337 4.337 0 0 1-2.046-2.65 1.591 1.591 0 0 1 1.132-1.95 1.602 1.602 0 0 1 1.96 1.126c.082.306.28.56.554.718.276.159.596.2.902.117.308-.081.564-.276.722-.55a1.16 1.16 0 0 0 .118-.9 1.592 1.592 0 0 1 1.132-1.948 1.602 1.602 0 0 1 1.96 1.126 4.307 4.307 0 0 1-.44 3.312 4.355 4.355 0 0 1-2.666 2.034 4.355 4.355 0 0 1-1.14.152z" fill="#ff699f"/><path d="M60.31 56.898a6.575 6.575 0 0 1-3.278-.879 6.493 6.493 0 0 1-3.064-3.97 1.589 1.589 0 0 1 1.132-1.95 1.602 1.602 0 0 1 1.96 1.126c.234.867.792 1.59 1.574 2.038.782.448 1.69.569 2.562.336 1.798-.479 2.87-2.324 2.388-4.112a1.591 1.591 0 0 1 1.132-1.949 1.6 1.6 0 0 1 1.96 1.126c.94 3.484-1.146 7.077-4.65 8.008a6.585 6.585 0 0 1-1.716.226z" fill="#ff699f"/><path d="M81.144 40.358c-2.536-9.41-10.808-16.122-20.582-16.705a1.595 1.595 0 0 0-1.692 1.493c-.052.88.62 1.63 1.502 1.682 8.396.5 15.504 6.268 17.682 14.353 2.786 10.334-3.406 20.995-13.8 23.764a19.434 19.434 0 0 1-5.014.657c-6.532 0-12.802-3.275-16.434-8.865a22.349 22.349 0 0 0 2.626-10.529c0-3.8-.95-7.383-2.624-10.529a19.552 19.552 0 0 1 5.95-5.874c.746-.47.968-1.451.496-2.195a1.607 1.607 0 0 0-2.208-.493 22.755 22.755 0 0 0-6.096 5.641c-4.144-5.54-10.776-9.135-18.236-9.135C10.19 23.625 0 33.754 0 46.208s10.19 22.585 22.716 22.585c7.464 0 14.096-3.597 18.24-9.139a22.896 22.896 0 0 0 9.574 7.423 22.629 22.629 0 0 0 14.55.939c12.1-3.22 19.306-15.63 16.064-27.658zM22.716 65.612C11.954 65.612 3.2 56.908 3.2 46.21s8.754-19.403 19.516-19.403c10.762 0 19.514 8.703 19.514 19.403 0 10.698-8.754 19.402-19.514 19.402z" fill="#ff699f"/><path d="M18.342 44.426c-.884 0-1.6-.711-1.6-1.59 0-.653-.534-1.183-1.19-1.183-.656 0-1.19.53-1.19 1.183 0 .879-.716 1.59-1.6 1.59-.884 0-1.6-.711-1.6-1.59 0-2.406 1.97-4.365 4.39-4.365s4.39 1.959 4.39 4.365c0 .877-.718 1.59-1.6 1.59z" fill="#ff699f"/><path d="M32.67 44.426c-.884 0-1.6-.711-1.6-1.59 0-.653-.534-1.183-1.19-1.183-.656 0-1.19.53-1.19 1.183 0 .879-.716 1.59-1.6 1.59-.884 0-1.6-.711-1.6-1.59 0-2.406 1.97-4.365 4.39-4.365 2.422 0 4.39 1.959 4.39 4.365 0 .877-.716 1.59-1.6 1.59z" fill="#ff699f"/><path d="M22.716 57.047c-3.626 0-6.576-2.933-6.576-6.54 0-.879.716-1.59 1.6-1.59.884 0 1.6.711 1.6 1.59 0 1.852 1.514 3.359 3.376 3.359 1.862 0 3.376-1.505 3.376-3.359 0-.879.716-1.59 1.6-1.59.884 0 1.6.711 1.6 1.59 0 3.607-2.95 6.54-6.576 6.54z" fill="#ff699f"/><path d="M40.986 10.857c-.884 0-1.6-.714-1.6-1.59V1.67c0-.879.716-1.59 1.6-1.59.884 0 1.6.711 1.6 1.59v7.596c0 .877-.716 1.591-1.6 1.591z" fill="#ff699f"/><path d="M40.986 17.574a1.593 1.593 0 0 1-1.6-1.59c0-.418.17-.83.468-1.126.298-.294.71-.465 1.132-.465.422 0 .832.17 1.132.465a1.6 1.6 0 0 1 .468 1.125c0 .42-.17.83-.468 1.126-.3.294-.71.465-1.132.465z" fill="#ff699f"/><path d="M32.732 14.816c-.41 0-.818-.155-1.132-.465l-5.304-5.274a1.585 1.585 0 0 1 0-2.249 1.606 1.606 0 0 1 2.264 0l5.304 5.274c.624.62.624 1.628 0 2.249a1.6 1.6 0 0 1-1.132.465z" fill="#ff699f"/><path d="M49.338 14.677c-.41 0-.818-.155-1.13-.466a1.585 1.585 0 0 1-.002-2.25l5.156-5.13a1.608 1.608 0 0 1 2.264 0 1.584 1.584 0 0 1 0 2.25l-5.156 5.13a1.6 1.6 0 0 1-1.132.466z" fill="#ff699f"/></g></svg>