<svg width="84" height="84" viewBox="0 0 84 84" xmlns="http://www.w3.org/2000/svg"><title>ico03</title><g fill="none" class="nc-icon-wrapper"><path d="M82.36 33.878H68.905v-3.473c0-.906-.735-1.64-1.64-1.64H31.828a1.641 1.641 0 0 0 0 3.28h33.797v12.58c0 11.049-5.9 21.318-15.425 26.906H18.706C9.181 65.943 3.281 55.674 3.281 44.624V32.046h10.992a1.641 1.641 0 0 0 0-3.282H1.641C.735 28.764 0 29.5 0 30.405v14.22a34.412 34.412 0 0 0 4.82 17.584 34.633 34.633 0 0 0 8.118 9.322H1.641C.735 71.53 0 72.266 0 73.17 0 79.141 4.858 84 10.828 84h51.188c5.97 0 10.828-4.858 10.828-10.828 0-.905-.735-1.64-1.64-1.64H55.967a34.645 34.645 0 0 0 7.596-8.478h4.632C76.91 63.053 84 55.965 84 47.25V35.52c0-.906-.735-1.64-1.64-1.64zm-20.344 46.84H10.828c-3.598 0-6.617-2.531-7.366-5.906h65.92c-.75 3.375-3.769 5.906-7.366 5.906zm6.89-36.996h5.25v3.527a5.968 5.968 0 0 1-5.96 5.96h-.373a34.58 34.58 0 0 0 1.083-8.585v-.902zm11.813 3.527c0 6.906-5.618 12.523-12.523 12.523h-2.793c.524-1.07.993-2.165 1.402-3.281h1.39c5.097 0 9.243-4.146 9.243-9.242v-5.168c0-.905-.736-1.64-1.641-1.64h-6.89v-3.282h11.812v10.09z" fill="#ff699f"/><path d="M33.452 11.123a5.588 5.588 0 0 1 .007 6.987l-.875 1.103a1.64 1.64 0 0 0 2.571 2.04l.875-1.102a8.855 8.855 0 0 0-.01-11.072l-.853-1.072a4.276 4.276 0 0 1-.005-5.347A1.64 1.64 0 1 0 32.59.621a7.545 7.545 0 0 0 .008 9.432l.853 1.07z" fill="#ff699f"/><path d="M42.546 14.813a5.593 5.593 0 0 1 .007 6.989l-.875 1.102a1.64 1.64 0 0 0 2.571 2.041l.875-1.102a8.855 8.855 0 0 0-.01-11.073l-.853-1.071a4.276 4.276 0 0 1-.005-5.347 1.64 1.64 0 1 0-2.571-2.04 7.545 7.545 0 0 0 .008 9.432l.853 1.069z" fill="#ff699f"/><path d="M24.36 14.813a5.59 5.59 0 0 1 .007 6.987l-.875 1.102a1.64 1.64 0 0 0 2.571 2.041l.874-1.102a8.855 8.855 0 0 0-.01-11.073l-.853-1.071a4.276 4.276 0 0 1-.005-5.347 1.64 1.64 0 1 0-2.57-2.04 7.544 7.544 0 0 0 .008 9.433l.853 1.07z" fill="#ff699f"/><path d="M23.495 28.764c-.431 0-.854.176-1.16.481-.305.307-.48.729-.48 1.16 0 .431.175.855.48 1.162.306.305.729.479 1.16.479.432 0 .855-.174 1.16-.48a1.646 1.646 0 0 0 0-2.322 1.653 1.653 0 0 0-1.16-.48z" fill="#ff699f"/><path d="M53.304 63.354c4.91-4.955 7.727-11.782 7.727-18.73a1.641 1.641 0 0 0-3.281 0c0 6.09-2.47 12.075-6.777 16.42a1.64 1.64 0 1 0 2.33 2.31z" fill="#ff699f"/><path d="M46.751 67.965c.273 0 .55-.069.804-.211l.038-.022a1.64 1.64 0 0 0-1.611-2.858l-.038.022a1.64 1.64 0 0 0 .807 3.07z" fill="#ff699f"/></g></svg>